<svg width="33" height="33" viewBox="0 0 33 33" fill="none" xmlns="http://www.w3.org/2000/svg">
<path d="M32.649 16.433C32.649 19.572 31.7182 22.6406 29.9742 25.2505C28.2303 27.8605 25.7516 29.8946 22.8516 31.0959C19.9515 32.2971 16.7604 32.6115 13.6817 31.9991C10.603 31.3867 7.7751 29.8752 5.5555 27.6556C3.3359 25.436 1.82433 22.608 1.21195 19.5294C0.59956 16.4507 0.91386 13.2595 2.1151 10.3594C3.31634 7.45939 5.35055 4.98068 7.96053 3.23676C10.5705 1.49283 13.639 0.562073 16.778 0.562073C20.9872 0.562073 25.0241 2.23412 28.0005 5.21051C30.9769 8.1869 32.649 12.2238 32.649 16.433Z" fill="url(#paint0_linear_76_4)"/>
<path d="M16.778 16.2381C16.26 16.2381 15.7536 16.0844 15.323 15.7967C14.8923 15.5089 14.5566 15.0998 14.3584 14.6212C14.1601 14.1427 14.1083 13.6161 14.2093 13.1081C14.3104 12.6 14.5598 12.1334 14.9261 11.7671C15.2924 11.4008 15.759 11.1514 16.267 11.0503C16.7751 10.9493 17.3017 11.0011 17.7802 11.1994C18.2588 11.3976 18.6678 11.7333 18.9556 12.164C19.2434 12.5947 19.397 13.1011 19.397 13.619C19.3962 14.3134 19.12 14.979 18.629 15.47C18.138 15.961 17.4724 16.2373 16.778 16.2381ZM16.778 11.938C16.4451 11.938 16.1197 12.0368 15.843 12.2217C15.5662 12.4066 15.3505 12.6694 15.2231 12.977C15.0957 13.2845 15.0624 13.6229 15.1273 13.9494C15.1923 14.2758 15.3526 14.5757 15.5879 14.8111C15.8233 15.0464 16.1232 15.2067 16.4497 15.2716C16.7761 15.3366 17.1145 15.3033 17.422 15.1759C17.7296 15.0485 17.9924 14.8328 18.1774 14.5561C18.3623 14.2793 18.461 13.9539 18.461 13.621C18.4605 13.1748 18.283 12.7471 17.9675 12.4315C17.652 12.116 17.2242 11.9385 16.778 11.938Z" fill="white"/>
<path d="M16.778 21.89C16.7026 21.8901 16.6283 21.872 16.5615 21.8372C16.4946 21.8023 16.4372 21.7519 16.394 21.6901L16.353 21.6311L14.527 19.014C14.335 18.739 14.127 18.4571 13.927 18.1851C13.1596 17.2489 12.5395 16.2011 12.088 15.078C11.7952 14.3031 11.7064 13.466 11.83 12.6469C11.9537 11.8277 12.2856 11.0541 12.794 10.4C13.2647 9.79139 13.8685 9.29871 14.5592 8.95972C15.2499 8.62073 16.0091 8.44446 16.7785 8.44446C17.5479 8.44446 18.3071 8.62073 18.9978 8.95972C19.6885 9.29871 20.2923 9.79139 20.763 10.4C21.2714 11.0541 21.6033 11.8277 21.727 12.6469C21.8506 13.466 21.7617 14.3031 21.469 15.078C21.0175 16.2011 20.3974 17.2489 19.63 18.1851C19.43 18.4571 19.221 18.738 19.03 19.014L17.205 21.6311L17.163 21.6901C17.1199 21.7519 17.0624 21.8025 16.9956 21.8373C16.9287 21.8721 16.8544 21.8902 16.779 21.89M16.779 9.38C16.1529 9.38227 15.5355 9.52688 14.9735 9.80286C14.4115 10.0788 13.9196 10.479 13.535 10.973C13.124 11.5054 12.8565 12.1344 12.7583 12.7998C12.6601 13.4652 12.7343 14.1446 12.974 14.7731C13.398 15.8046 13.9733 16.7671 14.681 17.629C14.881 17.906 15.097 18.192 15.297 18.478L16.78 20.604L18.263 18.478C18.463 18.192 18.674 17.906 18.879 17.629C19.5867 16.7671 20.162 15.8046 20.586 14.7731C20.8256 14.1446 20.8999 13.4652 20.8017 12.7998C20.7034 12.1344 20.436 11.5054 20.025 10.973C19.6404 10.479 19.1485 10.0788 18.5865 9.80286C18.0245 9.52688 17.4071 9.38227 16.781 9.38" fill="white"/>
<path d="M16.778 24.4251C16.6894 24.425 16.6027 24.3997 16.528 24.3521L12.334 21.7032C12.2673 21.661 12.2124 21.6025 12.1743 21.5334C12.1362 21.4642 12.1162 21.3866 12.1162 21.3077C12.1162 21.2287 12.1362 21.151 12.1743 21.0818C12.2124 21.0127 12.2673 20.9544 12.334 20.9122L13.665 20.0711C13.77 20.0048 13.8971 19.9829 14.0182 20.0103C14.1394 20.0377 14.2447 20.1121 14.311 20.2171C14.3773 20.3221 14.3992 20.4492 14.3718 20.5704C14.3444 20.6915 14.27 20.7968 14.165 20.8631L13.465 21.3082L16.782 23.4081L20.099 21.3082L19.399 20.8631C19.294 20.7968 19.2196 20.6915 19.1922 20.5704C19.1648 20.4492 19.1867 20.3221 19.253 20.2171C19.3193 20.1121 19.4246 20.0377 19.5458 20.0103C19.6669 19.9829 19.794 20.0048 19.899 20.0711L21.23 20.9122C21.2967 20.9544 21.3517 21.0127 21.3898 21.0818C21.4278 21.151 21.4478 21.2287 21.4478 21.3077C21.4478 21.3866 21.4278 21.4642 21.3898 21.5334C21.3517 21.6025 21.2967 21.661 21.23 21.7032L17.036 24.3521C16.9613 24.3997 16.8746 24.425 16.786 24.4251" fill="white"/>
<defs>
<linearGradient id="paint0_linear_76_4" x1="16.778" y1="32" x2="16.778" y2="1" gradientUnits="userSpaceOnUse">
<stop stop-color="#FF642F"/>
<stop offset="1" stop-color="#FF9F2F"/>
</linearGradient>
</defs>
</svg>
