<svg width="103" height="102" viewBox="0 0 103 102" fill="none" xmlns="http://www.w3.org/2000/svg">
<path d="M93.472 71.4091C92.7846 71.0561 91.9867 70.9851 91.2478 71.2112C90.509 71.4373 89.8874 71.9426 89.5152 72.6198C89.143 73.2969 89.0496 74.0925 89.2548 74.8375C89.46 75.5824 89.9476 76.218 90.614 76.6091C94.149 78.5511 96.177 80.7041 96.177 82.5161C96.177 84.7321 93.037 88.166 84.225 91.16C75.519 94.118 63.886 95.7471 51.466 95.7471C39.046 95.7471 27.413 94.118 18.707 91.16C9.895 88.166 6.755 84.7321 6.755 82.5161C6.755 80.7041 8.78199 78.5511 12.317 76.6091C12.9834 76.218 13.471 75.5824 13.6762 74.8375C13.8814 74.0925 13.788 73.2969 13.4158 72.6198C13.0436 71.9426 12.422 71.4373 11.6832 71.2112C10.9443 70.9851 10.1463 71.0561 9.45898 71.4091C5.51798 73.5751 0.820007 77.2591 0.820007 82.5181C0.820007 86.5491 3.592 92.295 16.798 96.782C26.098 99.943 38.415 101.682 51.466 101.682C64.517 101.682 76.829 99.941 86.134 96.782C99.339 92.295 102.112 86.5481 102.112 82.5181C102.112 77.2601 97.412 73.5741 93.472 71.4091Z" fill="#FF642F"/>
<path d="M29.064 86.872C43.7931 90.3908 59.1439 90.3908 73.873 86.872C81.243 84.79 84.98 81.772 84.98 77.915C84.98 74.058 81.243 71.04 73.873 68.958C72.237 68.496 70.458 68.09 68.566 67.745C67.5387 69.5197 66.4623 71.347 65.337 73.227C67.431 73.541 69.397 73.927 71.182 74.381C76.606 75.763 78.587 77.318 78.995 77.916C78.588 78.516 76.607 80.069 71.183 81.45C65.0518 82.8724 58.7771 83.5838 52.483 83.57C52.146 83.595 51.806 83.609 51.465 83.609C51.124 83.609 50.783 83.595 50.446 83.57C44.152 83.5838 37.8772 82.8724 31.746 81.45C26.322 80.069 24.341 78.513 23.933 77.916C24.34 77.316 26.322 75.763 31.746 74.381C33.531 73.927 35.497 73.541 37.591 73.227C36.4657 71.3477 35.3893 69.5203 34.362 67.745C32.47 68.091 30.691 68.496 29.055 68.958C21.685 71.04 17.948 74.058 17.948 77.915C17.948 81.772 21.685 84.79 29.055 86.872" fill="#FF642F"/>
<path d="M51.468 77.6731C52.7577 77.6781 54.0267 77.3492 55.1516 76.7183C56.2764 76.0875 57.2188 75.1761 57.887 74.0731C67.544 58.2731 79.054 37.4531 79.054 27.9791C79.054 20.6628 76.1477 13.6462 70.9743 8.47281C65.8009 3.29943 58.7843 0.393066 51.468 0.393066C44.1518 0.393066 37.1351 3.29943 31.9618 8.47281C26.7884 13.6462 23.882 20.6628 23.882 27.9791C23.882 37.4531 35.393 58.2791 45.049 74.0731C45.7172 75.1761 46.6596 76.0875 47.7845 76.7183C48.9093 77.3492 50.1783 77.6781 51.468 77.6731ZM40.38 26.0841C40.38 23.8911 41.0303 21.7473 42.2487 19.9239C43.4671 18.1005 45.1988 16.6793 47.2248 15.8401C49.2509 15.0009 51.4803 14.7813 53.6312 15.2091C55.782 15.6369 57.7577 16.693 59.3084 18.2437C60.8591 19.7944 61.9151 21.77 62.343 23.9209C62.7708 26.0718 62.5512 28.3012 61.712 30.3273C60.8727 32.3533 59.4516 34.085 57.6282 35.3034C55.8048 36.5218 53.661 37.1721 51.468 37.1721C48.5283 37.1689 45.7099 35.9997 43.6311 33.921C41.5524 31.8422 40.3832 29.0238 40.38 26.0841Z" fill="url(#paint0_linear_76_3)"/>
<defs>
<linearGradient id="paint0_linear_76_3" x1="51.468" y1="0.393066" x2="51.468" y2="77.6731" gradientUnits="userSpaceOnUse">
<stop stop-color="#FF9B2F"/>
<stop offset="1" stop-color="#FF642F"/>
</linearGradient>
</defs>
</svg>
