<svg width="21" height="16" viewBox="0 0 21 16" fill="none" xmlns="http://www.w3.org/2000/svg">
<path d="M10.965 15.995C8.88105 15.995 6.79604 16.003 4.71204 15.995C3.85278 16.018 3.01327 15.7351 2.34327 15.1966C1.67327 14.6581 1.21635 13.8991 1.05404 13.055C1.00364 12.7618 0.982206 12.4643 0.990044 12.167C0.985377 9.57162 0.985377 6.97671 0.990044 4.38204C0.960761 3.86961 1.04048 3.35676 1.22395 2.8774C1.40741 2.39805 1.69043 1.9631 2.05436 1.60116C2.41828 1.23922 2.85483 0.95851 3.33518 0.777673C3.81554 0.596835 4.32878 0.51988 4.84104 0.551965C8.92437 0.551965 13.008 0.551965 17.092 0.551965C17.6043 0.519584 18.1177 0.596285 18.5981 0.77694C19.0786 0.957595 19.5153 1.23818 19.8794 1.60006C20.2434 1.96194 20.5265 2.39692 20.7101 2.87631C20.8936 3.35569 20.9734 3.86859 20.9441 4.38107C20.9481 6.97573 20.9481 9.57034 20.9441 12.165C20.9732 12.6774 20.8933 13.1902 20.7098 13.6695C20.5263 14.1489 20.2433 14.5839 19.8794 14.9459C19.5155 15.3079 19.0791 15.5886 18.5988 15.7696C18.1185 15.9506 17.6053 16.0278 17.093 15.9961C15.051 15.9994 13.0094 15.9994 10.968 15.9961M19.132 4.90597C19.1333 4.71517 18.9139 4.60704 18.7633 4.72419L13.953 8.46603C13.1255 9.18696 12.0651 9.58407 10.9676 9.58407C9.87003 9.58407 8.80958 9.18696 7.98205 8.46603C6.39405 7.22936 4.80537 5.99366 3.21604 4.759C3.19802 4.74498 3.17983 4.73118 3.16132 4.7174C3.0124 4.60655 2.79905 4.71837 2.79905 4.90402C2.79905 7.32868 2.79905 9.75296 2.79905 12.177C2.77223 12.4436 2.80486 12.7128 2.89462 12.9653C2.98437 13.2178 3.12899 13.4472 3.31808 13.637C3.50716 13.8269 3.73601 13.9725 3.98812 14.0633C4.24023 14.1541 4.50933 14.1878 4.77604 14.1621C8.90204 14.1621 13.0277 14.1621 17.153 14.1621C17.4198 14.1883 17.689 14.1549 17.9413 14.0644C18.1936 13.974 18.4226 13.8287 18.6119 13.639C18.8013 13.4493 18.9461 13.22 19.0361 12.9675C19.126 12.715 19.1588 12.4457 19.132 12.179C19.132 9.75437 19.132 7.32997 19.132 4.90597ZM3.49804 2.63998C3.69804 2.80998 3.78604 2.89601 3.88404 2.97201C5.62871 4.33001 7.37371 5.68736 9.11904 7.04403C9.62204 7.50547 10.2794 7.76215 10.962 7.76363C11.6446 7.76511 12.3031 7.51121 12.8081 7.05196C14.5661 5.68796 16.322 4.32132 18.076 2.95199C18.2455 2.82077 18.1794 2.54934 17.9706 2.50102C17.7674 2.45399 17.5615 2.41825 17.3541 2.39401C13.1014 2.37934 8.84837 2.37934 4.59504 2.39401C4.22101 2.43813 3.85245 2.52022 3.49505 2.639" fill="#393A3A"/>
</svg>
