<svg width="15" height="16" viewBox="0 0 15 21" fill="none" xmlns="http://www.w3.org/2000/svg">
<path d="M2.22108 7.99193C2.22108 7.24893 2.22108 6.49794 2.22108 5.74694C2.25415 4.55179 2.71686 3.40865 3.52439 2.52697C4.33193 1.64529 5.43019 1.08418 6.61784 0.946522C7.80549 0.808863 9.00296 1.10387 9.99076 1.77745C10.9786 2.45104 11.6905 3.45811 11.9961 4.614C12.1205 5.50363 12.1706 6.40197 12.1461 7.29992C12.1561 7.53292 12.1461 7.76801 12.1461 7.99401C12.4614 8.0048 12.7709 8.08228 13.054 8.22155C13.3372 8.36081 13.5875 8.55867 13.7886 8.80187C13.9896 9.04506 14.1368 9.32816 14.2203 9.63243V9.63243C14.3865 10.2378 14.2731 10.8823 14.2731 11.5101C14.2731 13.2185 14.2731 14.9264 14.2731 16.635C14.2902 17.1867 14.194 17.7361 13.9905 18.2493C13.787 18.7624 13.4806 19.2284 13.09 19.6185C12.6994 20.0086 12.2331 20.3145 11.7197 20.5173C11.2063 20.7202 10.6568 20.8157 10.1051 20.798C8.15575 20.802 6.20675 20.802 4.25808 20.798C3.70643 20.8153 3.15707 20.7194 2.6439 20.5162C2.13073 20.3131 1.66463 20.007 1.27436 19.6167C0.884094 19.2264 0.577936 18.7603 0.374766 18.2472C0.171595 17.734 0.0757237 17.1846 0.0930733 16.6329C0.0902577 14.9244 0.0898204 13.2159 0.0917615 11.5073C0.0924742 10.88 -0.0192027 10.2358 0.147608 9.63109V9.63109C0.231447 9.32715 0.378637 9.04439 0.579524 8.80138C0.78041 8.55837 1.03044 8.36069 1.31318 8.22118C1.59593 8.08167 1.90499 8.00351 2.22007 7.99193M7.20606 9.45494C5.61273 9.45494 4.01907 9.45494 2.42507 9.45494C1.75607 9.45494 1.51408 9.69397 1.51408 10.355C1.51408 12.4656 1.51408 14.5759 1.51408 16.6859C1.50348 17.0413 1.56551 17.3952 1.69636 17.7258C1.82721 18.0564 2.02414 18.3569 2.2751 18.6088C2.52605 18.8606 2.82577 19.0587 3.15589 19.1908C3.48602 19.3229 3.83963 19.3862 4.19508 19.3769C6.18708 19.3843 8.17909 19.3843 10.1711 19.3769C10.5266 19.3865 10.8802 19.3234 11.2105 19.1915C11.5407 19.0596 11.8406 18.8617 12.0917 18.6099C12.3427 18.358 12.5398 18.0576 12.6707 17.7269C12.8016 17.3963 12.8637 17.0425 12.8531 16.687C12.8591 14.577 12.8531 12.4669 12.8531 10.3559C12.8531 9.69595 12.6081 9.45592 11.9421 9.45592C10.3634 9.45592 8.78442 9.45592 7.20509 9.45592M10.7271 8.01598C10.7271 7.52598 10.7271 7.06996 10.7271 6.61596C10.742 6.15898 10.73 5.70152 10.6911 5.24596C10.564 4.37345 10.1029 3.58441 9.40507 3.0454C8.70729 2.50639 7.82742 2.25954 6.95109 2.35692C6.18375 2.35887 5.44145 2.63028 4.85383 3.12377C4.26622 3.61726 3.87061 4.30153 3.73608 5.057C3.65959 6.04258 3.65123 7.03218 3.71107 8.01891L10.7271 8.01598Z" fill="#393A3A"/>
<path d="M7.31938 12.0031C7.62263 11.9835 7.92454 12.0581 8.18388 12.2164C8.44322 12.3748 8.64734 12.6093 8.76838 12.8881C8.87948 13.1484 8.90632 13.4369 8.84517 13.7133C8.78401 13.9896 8.63793 14.24 8.42738 14.4291C8.33263 14.506 8.2584 14.6051 8.21129 14.7177C8.16417 14.8302 8.14565 14.9527 8.15739 15.0741C8.17139 15.6741 8.16839 16.2841 8.15739 16.8891C8.16738 16.9884 8.15635 17.0888 8.12504 17.1836C8.09374 17.2784 8.04285 17.3656 7.97566 17.4395C7.90847 17.5133 7.82649 17.5722 7.73506 17.6123C7.64363 17.6524 7.54478 17.6729 7.44493 17.6724C7.34508 17.6718 7.24647 17.6502 7.1555 17.609C7.06453 17.5679 6.98323 17.5081 6.91688 17.4335C6.85053 17.3589 6.80063 17.2711 6.7704 17.1759C6.74016 17.0808 6.73026 16.9803 6.74138 16.8811C6.73767 16.6757 6.7374 16.4705 6.73817 16.2653C6.73997 15.7915 6.83931 15.3017 6.69926 14.849C6.62875 14.6211 6.50425 14.4136 6.33638 14.2442C6.14697 14.0508 6.02997 13.798 6.00502 13.5285C6.00211 13.4971 6.00047 13.4657 6.00009 13.4343C5.99427 12.9617 6.26376 12.496 6.65458 12.2302C6.85146 12.0963 7.08074 12.0179 7.31837 12.0031" fill="#393A3A"/>
</svg>
