<svg width="20" height="20" viewBox="0 0 20 20" fill="none" xmlns="http://www.w3.org/2000/svg">
<circle cx="10" cy="10" r="10" fill="#D9D9D9"/>
<path d="M16 7.80541C16 5.70374 14.5225 4 12.7 4C11.6691 4.03704 10.6952 4.55368 10 5.43222C9.30482 4.55368 8.33086 4.03704 7.3 4C5.47746 4 4 5.70374 4 7.80541C4 10.5176 6.85 13.5135 8.2 15.0703L9.568 16.6478C9.65231 16.7451 9.76669 16.7999 9.886 16.8H10.114C10.2333 16.7999 10.3477 16.7451 10.432 16.6478L11.8 15.0703C13.15 13.5135 16 10.5176 16 7.80541Z" fill="#F58434"/>
</svg>
